<svg id="Layer_1" data-name="Layer 1" xmlns="http://www.w3.org/2000/svg" viewBox="0 0 549.92 100"><defs><style>.cls-1{fill:#fff;}.cls-2{fill:#1c6bba;}</style></defs><path class="cls-1" d="M123.07,89.1q1.08-11.09,1.57-18.57t1-19.87q.5-12.39.5-16.43l0-3.79q10.13.09,24.53.09,13.27,0,23.41-.09L174,31.86c0,.34-.11,1.58-.22,3.72l-.26,4.67c-.06,1-.08,2-.08,3q-8.29-.34-13.93-.34l-8.35,0c-1.45,0-3.71.08-6.77.19l-.52,9.89c3.38.08,7.32.13,11.82.13q2.4,0,12.81-.31Q168,58.38,167.63,66q-7.42-.09-11.42-.09-5.93,0-13.27.3l-.51,10.45h4.93c1.46,0,4.48,0,9.06-.13l8.89-.22c1.32,0,3.52-.14,6.62-.34q-.52,6.36-.86,13.15-10.48-.09-23-.09l-18.91,0Z"/><path class="cls-1" d="M181.21,89.1q.94-9.8,1.29-15.69.52-8.76,1-22.68.39-10.66.39-15.26v-5q5,.14,8.68.13c2.35,0,5.42-.06,9.23-.19s7.39-.19,10.74-.19a66.49,66.49,0,0,1,10.1.68,23.66,23.66,0,0,1,8.09,2.84,19.89,19.89,0,0,1,6.3,5.63,25.45,25.45,0,0,1,3.86,8.14,34.72,34.72,0,0,1,1.34,9.6,41.48,41.48,0,0,1-1,9.35,34.67,34.67,0,0,1-2.87,8.1A26.72,26.72,0,0,1,234,80.74a25.64,25.64,0,0,1-5.65,4.45,24.48,24.48,0,0,1-4.77,2.14A34.75,34.75,0,0,1,217,88.58a96.92,96.92,0,0,1-10.52.52L189.16,89Q186.7,89,181.21,89.1Zm18.57-12.94c1.58.15,3.22.22,4.94.22a35.5,35.5,0,0,0,7.82-.78,12.32,12.32,0,0,0,6-3.3,15.29,15.29,0,0,0,3.84-6.51,27.13,27.13,0,0,0,1.25-8.15A18.3,18.3,0,0,0,221.81,49a10.37,10.37,0,0,0-4.92-4.88,21,21,0,0,0-8.36-1.37q-3.09,0-7.3.25Z"/><path class="cls-1" d="M251.77,30.44q6.71.09,9.45.09,3.43,0,9.15-.09l-1.28,18.27c-.26,3.43-.45,6.66-.58,9.66s-.19,5.09-.19,6.23a26.84,26.84,0,0,0,.47,5.46,8.76,8.76,0,0,0,1.72,3.72,7.54,7.54,0,0,0,3.46,2.3,14,14,0,0,0,4.61.77,13.12,13.12,0,0,0,3.87-.56A9.12,9.12,0,0,0,285,75a8.59,8.59,0,0,0,1.72-1.79,12.74,12.74,0,0,0,1.59-3.07,19.28,19.28,0,0,0,1-4.5q.38-2.82,1-12.8.56-8.49.86-15.55.26-6.85.47-6.86h18.95L308.54,61c0,.58,0,1,0,1.42q-.18,8.94-1.1,12.61a16.7,16.7,0,0,1-3.07,6.38,19.36,19.36,0,0,1-6.28,4.88,31.28,31.28,0,0,1-9.37,3.07,62.54,62.54,0,0,1-10.61.9,62.19,62.19,0,0,1-9.29-.68,36.66,36.66,0,0,1-7.43-2,26.47,26.47,0,0,1-5.76-3.07,15,15,0,0,1-3.44-3.33,13.72,13.72,0,0,1-1.89-4.06,20.33,20.33,0,0,1-.78-5.72c0-.69,0-1.73.09-3.11s.19-3.39.39-6l.56-6.87q.21-2.71.47-7.95Z"/><path class="cls-1" d="M317.5,89.1c.55-5,1-9.59,1.3-13.62s.59-8.73.81-14.06.41-10.94.52-16.86.17-10.62.17-14.12c3.58.09,6.48.13,8.68.13s5.09-.06,8.38-.19,6.5-.19,9.62-.19q5.5,0,9.8.43a23.91,23.91,0,0,1,5.86,1.24,16.72,16.72,0,0,1,4.45,2.3,13.93,13.93,0,0,1,3,3A13.25,13.25,0,0,1,372,41.12a17.21,17.21,0,0,1,.66,4.84,19.13,19.13,0,0,1-.73,5.39,15.82,15.82,0,0,1-2.3,4.73,15.15,15.15,0,0,1-4,3.82A35.41,35.41,0,0,1,359,63.19l2.23,5.45c.63,1.52,1.31,3.07,2,4.64L369,85.87c.26.55.72,1.62,1.38,3.23q-7.1-.09-9.54-.09-3.09,0-10.13.09-.69-2.23-2.5-8.3c-.48-1.69-.9-3-1.24-3.91q-1-3-3.06-8.55l-4.43-12.16a24.75,24.75,0,0,0,4.56.43,16.33,16.33,0,0,0,5.69-.94,7.74,7.74,0,0,0,3.87-2.92,7.46,7.46,0,0,0,1.31-4.17,5.49,5.49,0,0,0-1-3.25,5.89,5.89,0,0,0-3.12-2.08,22.87,22.87,0,0,0-6.55-.69c-1,0-2,0-3.12.07s-2.32.08-3.75.1q-.56,8.82-1,21.49t-.55,24.88q-7.18-.09-9.34-.09Q324,89,317.5,89.1Z"/><path class="cls-1" d="M379.42,89.1Q381.9,54.59,381.9,36l0-5.55c5,.06,8.37.09,10.06.09l9.24-.09q-.77,9.68-1.25,18.31-.6,12-.86,22.49t-.26,17.86L390,89Q387.41,89,379.42,89.1Z"/><path class="cls-1" d="M444.82,29.33a46.89,46.89,0,0,1,13.23,1.85,29.79,29.79,0,0,1,11.13,5.9,26.48,26.48,0,0,1,7.14,9.35,29.61,29.61,0,0,1,2.36,12.16,33.18,33.18,0,0,1-2.6,13.25,27.68,27.68,0,0,1-7.5,10.25,30.55,30.55,0,0,1-11.69,6.17,50.87,50.87,0,0,1-14.13,1.95,50,50,0,0,1-13.92-1.91,29.91,29.91,0,0,1-11.58-6.19,24.63,24.63,0,0,1-7-9.51A31.7,31.7,0,0,1,408.21,61a30.94,30.94,0,0,1,4.36-16.52,29.11,29.11,0,0,1,12.94-11.11A45.21,45.21,0,0,1,444.82,29.33Zm-.77,12.93a16.85,16.85,0,0,0-8.94,2.43A16.24,16.24,0,0,0,429,51.43a20.55,20.55,0,0,0-2.14,9.26A17.92,17.92,0,0,0,428.77,69a13.8,13.8,0,0,0,6,5.91,17.77,17.77,0,0,0,8.47,2.13,16.67,16.67,0,0,0,8.74-2.39A15.45,15.45,0,0,0,458,68a20.58,20.58,0,0,0,2.08-9.05,18.76,18.76,0,0,0-1.93-8.48,14,14,0,0,0-5.67-6A16.61,16.61,0,0,0,444.05,42.26Z"/><path class="cls-1" d="M485.6,89.1l.86-9,1.67-30.59.48-12.33V30.44q6.66.09,11.79.09c2.44,0,5.86,0,10.28-.09L529,63.8l2.52,4.9q.5-7.22,1-20.24t.5-18q5.28.09,8.46.09c1,0,3.78,0,8.41-.09l-1,12.81L547,78.83,546.7,89.1q-5.6-.09-10.45-.09-4,0-11.18.09-2.24-4.21-3.3-6.11l-7.21-12.25q-3.57-6-6.57-11.52-2-3.48-4.08-7.65L503,72l-.44,17.15q-5.32-.09-8.11-.09C492.86,89,489.92,89,485.6,89.1Z"/><path class="cls-2" d="M100,44V39.16A112.63,112.63,0,0,0,50.62,100h7.46A112.63,112.63,0,0,1,100,44Z"/><path class="cls-2" d="M39.1,100h7.26A112.68,112.68,0,0,1,100,36.77V33.22A112.73,112.73,0,0,0,39.1,100Z"/><path class="cls-2" d="M62.33,100H92a8,8,0,0,0,8-8V47.13A112.59,112.59,0,0,0,62.33,100Z"/><path class="cls-2" d="M100,31.43V8a8,8,0,0,0-8-8H8A8,8,0,0,0,0,8V92a8,8,0,0,0,8,8H34.85A112.69,112.69,0,0,1,100,31.43Z"/></svg>